<?xml version="1.0" encoding="UTF-8" standalone="no"?>
<!-- Generator: Adobe Illustrator 19.0.0, SVG Export Plug-In . SVG Version: 6.00 Build 0)  -->

<svg
   xmlns:dc="http://purl.org/dc/elements/1.1/"
   xmlns:cc="http://creativecommons.org/ns#"
   xmlns:rdf="http://www.w3.org/1999/02/22-rdf-syntax-ns#"
   xmlns:svg="http://www.w3.org/2000/svg"
   xmlns="http://www.w3.org/2000/svg"
   xmlns:sodipodi="http://sodipodi.sourceforge.net/DTD/sodipodi-0.dtd"
   xmlns:inkscape="http://www.inkscape.org/namespaces/inkscape"
   version="1.1"
   id="Group_3_1_"
   x="0px"
   y="0px"
   viewBox="0 0 226.8 82.8"
   xml:space="preserve"
   inkscape:version="0.91 r13725"
   sodipodi:docname="logo-moovin.svg"
   width="226.8"
   height="82.800003"><metadata
     id="metadata24"><rdf:RDF><cc:Work
         rdf:about=""><dc:format>image/svg+xml</dc:format><dc:type
           rdf:resource="http://purl.org/dc/dcmitype/StillImage" /><dc:title></dc:title></cc:Work></rdf:RDF></metadata><defs
     id="defs22" /><sodipodi:namedview
     pagecolor="#ffffff"
     bordercolor="#666666"
     borderopacity="1"
     objecttolerance="10"
     gridtolerance="10"
     guidetolerance="10"
     inkscape:pageopacity="0"
     inkscape:pageshadow="2"
     inkscape:window-width="1920"
     inkscape:window-height="1056"
     id="namedview20"
     showgrid="false"
     inkscape:zoom="1.0405644"
     inkscape:cx="113.4"
     inkscape:cy="113.4"
     inkscape:window-x="0"
     inkscape:window-y="24"
     inkscape:window-maximized="1"
     inkscape:current-layer="Group_3_1_" /><style
     type="text/css"
     id="style3">
	.st0{fill:#A2C314;}
	.st1{fill:#565656;}
</style><g
     id="moovin"
     transform="translate(0,-72.000455)"><g
       id="g11"><path
         class="st1"
         d="M 39.6,86.3 C 34.4,86.3 30.4,88 27.8,91.5 25.1,88 21.2,86.3 15.9,86.3 11.5,86.3 7.8,87.9 4.7,91 1.6,94.1 0,97.9 0,102.3 l 0,18.3 c 0,1.1 0.4,2.1 1.2,2.8 0.8,0.8 1.7,1.2 2.8,1.2 l 0.1,0 c 1.1,0 2,-0.4 2.8,-1.2 0.8,-0.8 1.2,-1.7 1.2,-2.8 l 0,-18.3 c 0,-2.2 0.8,-4 2.3,-5.5 1.5,-1.5 3.4,-2.3 5.5,-2.3 2.2,0 4,0.8 5.5,2.3 1.5,1.5 2.3,3.4 2.3,5.5 l 0,18.3 c 0,1.1 0.4,2.1 1.2,2.8 0.8,0.8 1.7,1.2 2.8,1.2 l 0.1,0 c 1.1,0 2.1,-0.4 2.8,-1.2 0.8,-0.8 1.2,-1.7 1.2,-2.8 l 0,-18.3 c 0,-2.2 0.8,-4 2.3,-5.5 1.5,-1.5 3.4,-2.3 5.5,-2.3 2.2,0 4,0.8 5.6,2.3 1.5,1.5 2.3,3.4 2.3,5.5 l 0,18.3 c 0,1.1 0.4,2.1 1.2,2.8 0.7,0.8 1.7,1.2 2.8,1.2 l 0.1,0 c 1.1,0 2,-0.4 2.8,-1.2 0.8,-0.8 1.2,-1.7 1.2,-2.8 l 0,-18.3 C 55.6,97.9 54,94.2 50.9,91 47.7,87.9 44,86.3 39.6,86.3 Z m 134.2,0 0,0 c -1.8,0 -3.1,0.8 -3.8,2.5 l -10.5,24.5 c -0.9,-2 -1.3,-3.1 -1.3,-3.2 -0.8,-1.9 -3.9,-9 -9.1,-21.4 -0.7,-1.6 -1.9,-2.5 -3.7,-2.5 l -0.1,0 c -1.4,0 -2.5,0.6 -3.3,1.8 -0.5,0.7 -0.7,1.4 -0.7,2.2 0,0.5 0.1,1 0.3,1.6 l 12.3,28.8 c 1,2.6 2.9,3.9 5.7,3.9 2.7,0 4.6,-1.3 5.6,-3.9 l 12.3,-28.8 c 0.2,-0.6 0.4,-1.1 0.4,-1.6 0,-0.8 -0.2,-1.5 -0.7,-2.2 -0.8,-1.1 -1.9,-1.7 -3.4,-1.7 z m 12.1,0 0,0 c -1.2,0 -2.1,0.4 -2.9,1.2 -0.8,0.8 -1.2,1.7 -1.2,2.9 l 0,30.2 c 0,1.1 0.4,2.1 1.2,2.8 0.8,0.8 1.7,1.2 2.8,1.2 l 0.1,0 c 1.1,0 2.1,-0.4 2.8,-1.2 0.8,-0.8 1.2,-1.7 1.2,-2.8 l 0,-30.3 c 0,-1.1 -0.4,-2.1 -1.2,-2.9 -0.7,-0.7 -1.7,-1.1 -2.8,-1.1 z m 0,-13.6 c -1.3,0 -2.4,0.5 -3.3,1.4 -0.9,0.9 -1.4,2 -1.4,3.3 0,1.3 0.5,2.4 1.4,3.3 0.9,0.9 2,1.4 3.3,1.4 1.3,0 2.3,-0.5 3.2,-1.4 0.9,-0.9 1.4,-2 1.4,-3.3 0,-1.3 -0.5,-2.4 -1.4,-3.3 -0.9,-0.9 -2,-1.4 -3.2,-1.4 z M 222.1,91 c -3.1,-3.1 -6.9,-4.7 -11.3,-4.7 -4.4,0 -8.2,1.6 -11.3,4.7 -3.1,3.1 -4.7,6.9 -4.7,11.4 l 0,18.2 c 0,1.1 0.4,2.1 1.2,2.8 0.8,0.8 1.7,1.2 2.8,1.2 l 0.1,0 c 1.1,0 2,-0.4 2.8,-1.2 0.8,-0.8 1.2,-1.7 1.2,-2.8 l 0,-18.2 c 0,-2.2 0.8,-4.1 2.3,-5.6 1.5,-1.5 3.4,-2.3 5.6,-2.3 2.2,0 4,0.8 5.6,2.3 1.5,1.5 2.3,3.4 2.3,5.6 l 0,18.2 c 0,1.1 0.4,2.1 1.2,2.8 0.8,0.8 1.7,1.2 2.8,1.2 l 0.1,0 c 1.1,0 2.1,-0.4 2.8,-1.2 0.8,-0.8 1.2,-1.7 1.2,-2.8 l 0,-18.2 c 0,-4.5 -1.6,-8.2 -4.7,-11.4 z"
         id="path13"
         inkscape:connector-curvature="0"
         style="fill:#ffffff" /></g></g><g
     id="infinito"
     transform="translate(0,-72.000455)"><g
       id="g16"><path
         class="st0"
         d="m 140,99.8 c -1.3,-3.7 -3.3,-6 -3.3,-6 0,0 -1.7,-2.6 -5.1,-4.7 -2.3,-1.5 -5.5,-2.8 -9.3,-2.8 -2.8,0 -6,0.6 -9.5,2.3 -3.4,1.9 -3.6,2.1 -7.2,5.5 -0.6,0.6 -1.6,1.7 -2,2.2 l 0,0 c 0,0 -3,3.5 -6.4,7.4 -3.3,3.8 -7,8 -8.7,9.6 -1.7,1.7 -4.3,3.4 -7.1,4.1 -3.2,0.8 -6.7,0.3 -9.7,-2.6 -2.5,-2.5 -3.8,-5.5 -3.8,-8.7 0,-3.1 1.3,-6.2 4,-8.8 4.8,-4.8 11.8,-2.6 10.6,-2.8 1.3,0.3 2.3,0.7 3,1 0.9,0.5 1.8,1.2 2,1.4 1.4,1.2 3,2.9 3.9,3.8 3.8,3.7 8.3,-1 6.6,-4.5 -0.3,-0.3 -2.9,-4.7 -8.5,-7.5 -2.7,-1.4 -6.1,-2.4 -10.2,-2.4 -1.3,0.1 -4.7,0.4 -8.3,2.1 -2.5,1.2 -5.1,3.1 -7.2,6 -3.6,4.9 -4.9,11.5 -2.7,17.7 1.3,3.7 3.3,6 3.3,6 0,0 1.7,2.6 5.1,4.7 2.3,1.5 5.5,2.8 9.3,2.8 2.8,0 6,-0.6 9.5,-2.3 3.4,-1.9 3.6,-2.1 7.2,-5.5 2.4,-2.4 5,-5.2 7.3,-7.8 3.5,-4 6.4,-7.6 6.9,-8.2 0.5,-0.5 2.4,-2.6 3,-3.2 1.7,-1.7 4.3,-3.4 7.1,-4.1 3.2,-0.8 6.7,-0.3 9.7,2.6 2.5,2.5 3.8,5.5 3.8,8.7 0,3 -1.3,6.2 -4,8.8 -4.8,4.8 -11.8,2.6 -10.6,2.8 -1.3,-0.3 -2.3,-0.7 -3,-1 -0.9,-0.5 -1.8,-1.2 -2,-1.4 -1.4,-1.2 -3,-2.9 -3.9,-3.8 -3.8,-3.7 -8.3,1 -6.6,4.5 0.3,0.3 2.9,4.7 8.5,7.5 2.7,1.4 6.1,2.4 10.2,2.4 1.3,-0.1 4.7,-0.4 8.3,-2.1 2.5,-1.2 5.1,-3.1 7.2,-6 3.5,-4.9 4.8,-11.5 2.6,-17.7 z"
         id="path18"
         inkscape:connector-curvature="0"
         style="fill:#10e05e" /></g></g></svg>